<?xml version="1.0" encoding="utf-8"?>
<!-- Generator: Adobe Illustrator 23.0.1, SVG Export Plug-In . SVG Version: 6.00 Build 0)  -->
<svg version="1.1" id="Layer_1" xmlns="http://www.w3.org/2000/svg" xmlns:xlink="http://www.w3.org/1999/xlink" x="0px" y="0px"
	 viewBox="0 0 415.38 67.6" style="enable-background:new 0 0 415.38 67.6;" xml:space="preserve">
<style type="text/css">
	.st0{fill:#FFFFFF;}
	.st1{opacity:0.65;fill:#FFFFFF;}
</style>
<g>
	<path class="st0" d="M14.9,32.23H0V0.52h13.86c6.65,0,11.03,3.17,11.03,8.51c0,3.17-2.04,5.74-4.78,6.77
		c3.65,0.52,6.43,3.78,6.43,7.43C26.54,28.93,22.02,32.23,14.9,32.23 M11.51,7.6H9.9v5.91h1.61c2.87,0,4.34-1,4.34-3.09
		C15.85,8.29,14.29,7.6,11.51,7.6 M13.12,19.24H9.9v5.91h3.22c2.95,0,4.04-1.13,4.04-3.08C17.16,20.15,15.72,19.24,13.12,19.24"/>
	<path class="st0" d="M55.94,32.23l-1.69-5.78h-9.29l-1.69,5.78H33.14L44.13,0.52H55.6l10.99,31.71H55.94z M49.6,10.77l-2.39,8.04
		h4.78L49.6,10.77z"/>
	<path class="st0" d="M89.24,32.75c-8.78,0-15.37-4.52-15.37-15.11V0.52h10.59v18.2c0,3.42,1.83,5.6,4.78,5.6
		c2.95,0,4.78-2.18,4.78-5.6V0.52h10.6v17.12C104.62,28.23,98.01,32.75,89.24,32.75"/>
	<path class="st0" d="M126.35,32.75c-5.16,0-9.64-1.87-12.59-4.43l4.21-6.73c2.95,2.35,5.52,3.43,8.25,3.43
		c1.52,0,2.61-0.66,2.61-1.74c0-1.52-1.21-2.08-5.08-3.26c-5.78-1.78-8.69-4.25-8.69-9.47c0-6.86,5.39-10.55,13.08-10.55
		c4.12,0,8.16,1.52,10.29,3.21l-4.17,6.91c-2.17-1.56-4.17-2.39-6.51-2.39c-2,0-2.74,0.87-2.74,1.78c0,1,0.74,1.61,4.91,2.82
		c5.73,1.65,8.86,3.87,8.86,9.82C138.77,28.5,134,32.75,126.35,32.75"/>
	<path class="st0" d="M164.15,32.75c-9.64,0-16.55-6.77-16.55-16.24c0-9.47,7.17-16.51,16.72-16.51c5.08,0,8.47,2.17,11.21,4.52
		l-5.21,7.08c-1.78-1.74-3.48-2.96-6.21-2.96c-3.52,0-6.13,3.05-6.13,7.6c0,4.56,2.52,7.85,6.74,7.85c2.34,0,4.52-1.04,6.38-2.77
		l5.09,6.9C173.15,30.88,169.71,32.75,164.15,32.75"/>
	<polygon class="st0" points="204.83,32.23 204.83,21.15 196.85,21.15 196.85,32.23 186.25,32.23 186.25,0.52 196.85,0.52 
		196.85,12.2 204.83,12.2 204.83,0.52 215.44,0.52 215.44,32.23 	"/>
	<polygon class="st0" points="275.15,32.23 275.15,0.52 285.32,0.52 285.32,24.15 295.7,24.15 295.7,32.23 	"/>
	<path class="st0" d="M318.57,32.75c-9.95,0-17.03-6.86-17.03-16.33c0-9.47,7.17-16.42,17.12-16.42c9.94,0,17.03,6.86,17.03,16.33
		C335.68,25.8,328.51,32.75,318.57,32.75 M318.57,8.43c-3.87,0-6.65,3.34-6.65,7.9c0,4.56,2.86,7.99,6.73,7.99
		c3.86,0,6.64-3.34,6.64-7.9C325.3,11.86,322.43,8.43,318.57,8.43"/>
	<polygon class="st0" points="368.21,32.23 368.21,16.77 363.3,25.97 358.48,25.97 353.44,16.77 353.44,32.23 343.44,32.23 
		343.44,0.52 353.73,0.52 360.95,13.16 367.64,0.52 378.8,0.52 378.8,32.23 	"/>
	<path class="st0" d="M403.74,32.23h-14.9V0.52h13.86c6.65,0,11.04,3.17,11.04,8.51c0,3.17-2.04,5.74-4.78,6.77
		c3.65,0.52,6.43,3.78,6.43,7.43C415.38,28.93,410.86,32.23,403.74,32.23 M400.35,7.6h-1.61v5.91h1.61c2.87,0,4.35-1,4.35-3.09
		C404.7,8.29,403.13,7.6,400.35,7.6 M401.96,19.24h-3.22v5.91h3.22c2.95,0,4.04-1.13,4.04-3.08C406,20.15,404.56,19.24,401.96,19.24
		"/>
	<g>
		<rect x="240.17" y="11.23" class="st0" width="10.25" height="10.29"/>
		<rect x="240.17" y="0.52" class="st1" width="10.25" height="10.71"/>
		<rect x="240.17" y="21.52" class="st1" width="10.25" height="10.71"/>
		<rect x="229.41" y="11.23" class="st1" width="10.76" height="10.3"/>
		<rect x="250.41" y="11.23" class="st1" width="10.71" height="10.3"/>
	</g>
	<g>
		<path class="st0" d="M18.75,44.79l-8.54,22.75H9.36L0.85,44.79h2.13l6.83,18.23l6.86-18.23H18.75z"/>
		<path class="st0" d="M20.92,60.89c0.06,2.65,1.68,4.7,4.42,4.7c1.86,0,3.11-0.67,4.24-1.71l1.28,1.25
			c-1.16,1.19-2.93,2.29-5.58,2.29c-3.96,0-6.37-2.9-6.37-6.74c0-3.42,2.38-6.43,6.22-6.43c3.87,0,5.92,3.08,5.98,6.65H20.92z
			 M28.88,59.3c-0.3-1.68-1.62-3.26-3.84-3.26c-2.32,0-3.69,1.43-4.03,3.26H28.88z"/>
		<path class="st0" d="M40.71,56.8c-0.58-0.49-1.16-0.7-1.8-0.7c-1.62,0-2.96,1.83-2.96,3.96v6.98h-1.98V54.61h1.98v1.71
			c0.7-1.22,1.86-2.07,3.29-2.07c1.01,0,1.71,0.27,2.47,0.95L40.71,56.8z"/>
		<path class="st0" d="M67.45,67.05h-2.01v-8.08c0-1.8-0.95-2.9-2.5-2.9c-1.98,0-3.54,1.59-3.54,3.45v7.53h-1.98v-8.08
			c0-1.8-0.85-2.9-2.56-2.9c-1.95,0-3.51,1.62-3.51,3.48v7.5h-1.98V54.61h1.98v1.68c0.73-1.19,2.2-2.04,3.78-2.04
			c2.04,0,3.23,0.88,3.84,2.26c0.92-1.37,2.68-2.26,4.27-2.26c2.96,0,4.21,1.98,4.21,4.48V67.05z"/>
		<path class="st0" d="M72.15,60.89c0.06,2.65,1.68,4.7,4.42,4.7c1.86,0,3.11-0.67,4.24-1.71l1.28,1.25
			c-1.16,1.19-2.93,2.29-5.58,2.29c-3.96,0-6.37-2.9-6.37-6.74c0-3.42,2.38-6.43,6.22-6.43c3.87,0,5.92,3.08,5.98,6.65H72.15z
			 M80.1,59.3c-0.3-1.68-1.62-3.26-3.84-3.26c-2.32,0-3.69,1.43-4.03,3.26H80.1z"/>
		<path class="st0" d="M87.18,67.05H85.2V47.96h1.98V67.05z"/>
		<path class="st0" d="M101.45,67.05h-1.98v-7.93c0-1.89-1.19-3.05-2.9-3.05c-2.04,0-3.57,1.71-3.57,3.78v7.2h-1.98V47.96H93v8.45
			c0.7-1.25,2.16-2.17,3.84-2.17c2.77,0,4.6,1.77,4.6,4.54V67.05z"/>
		<path class="st0" d="M110.6,67.42c-3.66,0-6.46-2.68-6.46-6.62c0-3.66,2.68-6.56,6.43-6.56c3.75,0,6.53,2.84,6.53,6.5
			C117.09,64.55,114.29,67.42,110.6,67.42z M110.57,56.1c-2.59,0-4.39,2.01-4.39,4.7c0,2.8,1.8,4.79,4.39,4.79
			c2.78,0,4.48-2.04,4.48-4.79C115.05,57.99,113.19,56.1,110.57,56.1z"/>
		<path class="st0" d="M126.79,56.8c-0.58-0.49-1.16-0.7-1.8-0.7c-1.62,0-2.96,1.83-2.96,3.96v6.98h-1.98V54.61h1.98v1.71
			c0.7-1.22,1.86-2.07,3.29-2.07c1.01,0,1.71,0.27,2.47,0.95L126.79,56.8z"/>
		<path class="st0" d="M130.24,67.05h-2.2v-2.93h2.2V67.05z"/>
		<path class="st0" d="M156.09,44.79l-8.54,22.75h-0.85l-8.51-22.75h2.13l6.83,18.23l6.86-18.23H156.09z"/>
		<path class="st0" d="M161.12,51.44h-1.98v-2.93h1.98V51.44z M161.12,67.05h-1.98V54.61h1.98V67.05z"/>
		<path class="st0" d="M175.15,54.61l-5.82,12.99l-5.85-12.99h2.16l3.69,8.48l3.75-8.48H175.15z"/>
		<path class="st0" d="M178.11,60.89c0.06,2.65,1.68,4.7,4.42,4.7c1.86,0,3.11-0.67,4.24-1.71l1.28,1.25
			c-1.16,1.19-2.93,2.29-5.58,2.29c-3.96,0-6.37-2.9-6.37-6.74c0-3.42,2.38-6.43,6.22-6.43c3.87,0,5.92,3.08,5.98,6.65H178.11z
			 M186.07,59.3c-0.3-1.68-1.62-3.26-3.84-3.26c-2.32,0-3.69,1.43-4.03,3.26H186.07z"/>
		<path class="st0" d="M197.9,56.8c-0.58-0.49-1.16-0.7-1.8-0.7c-1.62,0-2.96,1.83-2.96,3.96v6.98h-1.98V54.61h1.98v1.71
			c0.7-1.22,1.86-2.07,3.29-2.07c1.01,0,1.71,0.27,2.47,0.95L197.9,56.8z"/>
		<path class="st0" d="M224.64,67.05h-2.01v-8.08c0-1.8-0.95-2.9-2.5-2.9c-1.98,0-3.54,1.59-3.54,3.45v7.53h-1.98v-8.08
			c0-1.8-0.85-2.9-2.56-2.9c-1.95,0-3.51,1.62-3.51,3.48v7.5h-1.98V54.61h1.98v1.68c0.73-1.19,2.2-2.04,3.78-2.04
			c2.04,0,3.23,0.88,3.84,2.26c0.92-1.37,2.68-2.26,4.27-2.26c2.96,0,4.21,1.98,4.21,4.48V67.05z"/>
		<path class="st0" d="M229.34,60.89c0.06,2.65,1.68,4.7,4.42,4.7c1.86,0,3.11-0.67,4.24-1.71l1.28,1.25
			c-1.16,1.19-2.93,2.29-5.58,2.29c-3.96,0-6.37-2.9-6.37-6.74c0-3.42,2.38-6.43,6.22-6.43c3.87,0,5.92,3.08,5.98,6.65H229.34z
			 M237.29,59.3c-0.3-1.68-1.62-3.26-3.84-3.26c-2.32,0-3.69,1.43-4.03,3.26H237.29z"/>
		<path class="st0" d="M244.37,67.05h-1.98V47.96h1.98V67.05z"/>
		<path class="st0" d="M258.64,67.05h-1.98v-7.93c0-1.89-1.19-3.05-2.9-3.05c-2.04,0-3.57,1.71-3.57,3.78v7.2h-1.98V47.96h1.98v8.45
			c0.7-1.25,2.17-2.17,3.84-2.17c2.77,0,4.6,1.77,4.6,4.54V67.05z"/>
		<path class="st0" d="M267.79,67.42c-3.66,0-6.46-2.68-6.46-6.62c0-3.66,2.68-6.56,6.43-6.56c3.75,0,6.53,2.84,6.53,6.5
			C274.28,64.55,271.48,67.42,267.79,67.42z M267.76,56.1c-2.59,0-4.39,2.01-4.39,4.7c0,2.8,1.8,4.79,4.39,4.79
			c2.77,0,4.48-2.04,4.48-4.79C272.24,57.99,270.38,56.1,267.76,56.1z"/>
		<path class="st0" d="M283.98,56.8c-0.58-0.49-1.16-0.7-1.8-0.7c-1.62,0-2.96,1.83-2.96,3.96v6.98h-1.98V54.61h1.98v1.71
			c0.7-1.22,1.86-2.07,3.29-2.07c1.01,0,1.71,0.27,2.47,0.95L283.98,56.8z"/>
		<path class="st0" d="M287.43,67.05h-2.2v-2.93h2.2V67.05z"/>
	</g>
</g>
</svg>
