<?xml version="1.0" encoding="utf-8"?>
<!-- Generator: Adobe Illustrator 23.0.1, SVG Export Plug-In . SVG Version: 6.00 Build 0)  -->
<svg version="1.1" id="Isolation_Mode" xmlns="http://www.w3.org/2000/svg" xmlns:xlink="http://www.w3.org/1999/xlink" x="0px"
	 y="0px" viewBox="0 0 132.79 114.84" style="enable-background:new 0 0 132.79 114.84;" xml:space="preserve">
<style type="text/css">
	.st0{fill:#FFFFFF;}
</style>
<g>
	<g>
		<path class="st0" d="M34.3,45.94h-7.27c-3.53,0-5-1.98-5-4.57V29c0-11.22,5.41-20.79,12.69-20.79c4.48,0,4.88,3.33,5.1,3.54
			c-1.87,0.21-4.16,1.66-4.16,4.99c0,4.05,3.54,6.34,7.91,6.34c5.09,0,8.42-3.95,8.42-9.88c0-7.9-6.04-12.68-14.04-12.68
			c-7.17,0-13.72,4.78-16.32,11.85V1.97L0,2.29v6.65h5.41c2.7,0,4.05,2.19,4.05,4.79v27.96c0,2.81-1.56,4.26-3.95,4.26H0v6.86h34.3
			V45.94z M81.76,53.74c15.6,0,23.8-9.87,24.12-19.44h-8.42c-0.52,6.24-5.2,12.38-14.34,12.38c-9.25,0-14.55-6.97-14.65-16.43
			c0-0.63-0.11-1.87-0.11-1.87h37.94v-3.22C106.09,9.66,95.38,0,81.35,0C65.65,0,53.8,11.22,53.8,27.02
			C53.8,43.45,66.28,53.74,81.76,53.74z M68.57,21.62c0.21-7.58,4.16-14.76,12.47-14.76c8.83,0,11.85,7.59,11.85,14.86
			c0,0.22,0,0.83,0,0.83H68.57C68.57,22.55,68.57,21.93,68.57,21.62z M57.69,101.64V77c0-10.18-6.45-15.9-17.05-15.9
			c-8.21,0-15.59,3.33-19.02,10.71v-9.25L0,62.87v6.66h5.4c2.7,0,3.95,1.98,3.95,4.57v27.55c0,3.33-1.14,4.89-4.26,4.89H0.1v6.87
			h30.15v-6.87H26c-2.6,0-3.96-1.56-3.96-4.57V88.96c0-13.2,5.51-19.54,13.83-19.54c5.71,0,9.15,3.84,9.15,9.98v22.45
			c0,2.92-1.46,4.68-4.05,4.68H36.8v6.87h29.83v-6.87h-4.78C59.15,106.53,57.69,105.08,57.69,101.64z M119.62,102.17v-39.3H97.49
			v6.66h5.1c3.01,0,4.36,1.56,4.36,4.77v11.96c0,13.1-5.51,20.48-13.51,20.48c-5.72,0-9.46-3.44-9.46-9.67v-34.2h-21.2v6.66h4.15
			c2.91,0,4.36,1.45,4.36,4.77v25.48c0,10.81,7.8,15.06,17.46,15.06c8.11,0,15.49-4.15,18.61-12.26v10.82h21.31v-6.87h-5.31
			C120.66,106.53,119.62,104.87,119.62,102.17z M129.03,16.93c-0.22-0.24-0.49,0.2-0.98,0.75c-1.17,1.55-3.14,2.98-8.47,2.46
			c-2.29-0.22-5.08,0.28-6.64,3.44c-1.63,3.3,0.19,7.33,3.27,8.76c4.01,1.85,8.35-0.08,10.81-5.77
			C128.53,23.04,129.57,17.53,129.03,16.93z"/>
	</g>
	<g>
		<g>
			<path class="st0" d="M128.65,67.03c0.69,0,1.31-0.57,1.31-1.32c0-0.75-0.56-1.37-1.43-1.37h-1.56V69h0.69v-2.12l1.83,2.12h0.87
				L128.65,67.03z M127.66,66.49v-1.5h0.82c0.46,0,0.77,0.38,0.77,0.7c0,0.51-0.35,0.79-0.85,0.79H127.66z"/>
			<path class="st0" d="M128.36,62.34c-2.43,0-4.41,1.99-4.41,4.42c0,2.44,1.98,4.41,4.41,4.41c2.45,0,4.43-1.97,4.43-4.41
				C132.79,64.33,130.81,62.34,128.36,62.34z M128.36,70.55c-2.09,0-3.78-1.69-3.78-3.76c0-2.09,1.7-3.79,3.78-3.79
				c2.09,0,3.79,1.7,3.79,3.79C132.16,68.86,130.45,70.55,128.36,70.55z"/>
		</g>
	</g>
</g>
</svg>
