<?xml version="1.0" encoding="utf-8"?>
<!-- Generator: Adobe Illustrator 23.0.1, SVG Export Plug-In . SVG Version: 6.00 Build 0)  -->
<svg version="1.1" id="Layer_1" xmlns="http://www.w3.org/2000/svg" xmlns:xlink="http://www.w3.org/1999/xlink" x="0px" y="0px"
	 viewBox="0 0 323.33 158.57" style="enable-background:new 0 0 323.33 158.57;" xml:space="preserve">
<style type="text/css">
	.st0{fill:#FFFFFF;}
</style>
<g>
	<g>
		<path class="st0" d="M6.62,32.28c-0.78,1.57-1.79,2.36-3.04,2.36c-1.45,0-2.58-0.6-3.38-1.79l0.73-3.96
			c0.62,0.98,1.36,1.47,2.24,1.47c0.58,0,1.07-0.36,1.45-1.07c0.39-0.71,0.58-1.63,0.58-2.76c0-1.16-0.19-2.24-0.55-3.25
			c-0.3-0.78-0.86-1.87-1.71-3.29c-1.69-2.82-2.52-5.72-2.52-8.69c0-2.46,0.37-4.44,1.1-5.95c0.74-1.5,1.68-2.24,2.8-2.24
			c1.32,0,2.3,0.59,2.96,1.78L6.68,8.33C6.17,7.46,5.51,7.03,4.71,7.03c-0.54,0-0.98,0.33-1.33,1.02c-0.35,0.68-0.53,1.6-0.53,2.76
			c0,1.13,0.17,2.16,0.5,3.07c0.26,0.77,0.8,1.82,1.63,3.16c0.98,1.61,1.66,2.99,2.06,4.14c0.5,1.49,0.76,3.11,0.76,4.9
			C7.8,28.64,7.41,30.7,6.62,32.28"/>
		<path class="st0" d="M11.89,24.57c0.21,4.16,1.07,6.24,2.61,6.24c1.11,0,2.03-0.55,2.76-1.65l0.55,3.43
			c-0.86,1.36-2.05,2.05-3.58,2.05c-1.46,0-2.6-1.08-3.42-3.23c-0.81-2.15-1.22-5.25-1.22-9.28c0-3.77,0.39-6.77,1.16-9.02
			c0.77-2.23,1.81-3.35,3.11-3.35c1.37,0,2.4,1.12,3.1,3.35c0.7,2.25,1.01,5.46,0.93,9.64L11.89,24.57z M13.79,13.27
			c-0.6,0-1.09,0.75-1.47,2.27c-0.38,1.51-0.56,3.46-0.55,5.84l3.8-1.25C15.54,15.55,14.95,13.27,13.79,13.27"/>
		<path class="st0" d="M25.05,13.76c-0.42-0.27-0.86-0.4-1.29-0.4c-0.54,0-0.97,0.2-1.28,0.58v20.25h-2.33V11.48
			c1.17-1.16,2.49-1.73,3.95-1.73c0.39,0,0.87,0.06,1.42,0.17L25.05,13.76z"/>
		<polygon class="st0" points="31.57,34.19 29.44,34.19 26.24,10.19 28.63,10.19 30.56,27.52 30.61,27.52 32.62,10.19 34.78,10.19 
					"/>
		<path class="st0" d="M38.68,5.11c-0.25,0.51-0.56,0.76-0.92,0.76c-0.36,0-0.68-0.26-0.93-0.76c-0.26-0.5-0.39-1.12-0.39-1.87
			s0.13-1.38,0.39-1.89c0.26-0.52,0.57-0.78,0.93-0.78c0.37,0,0.68,0.26,0.92,0.78c0.25,0.51,0.37,1.15,0.37,1.89
			S38.93,4.62,38.68,5.11 M36.58,10.19h2.34v24h-2.34V10.19z"/>
		<path class="st0" d="M45.56,34.64l-0.38,1.78c1.45,0.06,2.17,0.98,2.17,2.76c0,2.25-1.2,3.38-3.59,3.38
			c-0.46,0-0.95-0.04-1.47-0.14l0.5-1.91c0.33,0.05,0.66,0.09,0.97,0.09c1.28,0,1.93-0.44,1.93-1.33c0-0.74-0.43-1.11-1.29-1.11
			c-0.27,0-0.58,0.03-0.94,0.09l1.1-3.87c-1.04-0.54-1.86-1.88-2.46-4.03c-0.61-2.16-0.9-4.88-0.9-8.17c0-3.8,0.39-6.82,1.19-9.06
			c0.8-2.24,1.87-3.36,3.22-3.36c1.03,0,1.93,0.6,2.74,1.78l-0.55,3.17c-0.62-0.86-1.2-1.29-1.75-1.29c-1.65,0-2.47,2.89-2.47,8.69
			c0,5.84,0.8,8.77,2.43,8.77c0.64,0,1.24-0.44,1.8-1.29l0.55,3.29C47.65,34.04,46.73,34.64,45.56,34.64"/>
		<path class="st0" d="M56.86,31.03c-0.72,2.4-1.75,3.61-3.11,3.61c-1.38,0-2.43-1.21-3.16-3.61c-0.68-2.19-1.01-5.13-1.01-8.81
			c0-3.71,0.33-6.67,1.01-8.91c0.73-2.37,1.77-3.56,3.14-3.56c1.37,0,2.42,1.19,3.16,3.56c0.66,2.2,0.98,5.17,0.98,8.91
			C57.87,25.89,57.53,28.84,56.86,31.03 M53.74,13.22c-1.22,0-1.81,2.97-1.81,8.91c0,5.78,0.6,8.68,1.81,8.68
			c1.19,0,1.78-2.89,1.78-8.68C55.52,16.19,54.93,13.22,53.74,13.22"/>
		<path class="st0" d="M69.9,34.64c-1.47,0-2.61-1.07-3.41-3.21c-0.8-2.14-1.2-5.15-1.2-9.04c0-3.86,0.4-6.93,1.21-9.22
			c0.79-2.2,1.83-3.29,3.11-3.29c0.52,0,0.99,0.15,1.4,0.44V0h2.32v32.85C72.51,34.04,71.36,34.64,69.9,34.64 M71.02,13.4
			c-0.49-0.18-0.78-0.27-0.9-0.27c-1.67,0-2.5,2.99-2.5,8.99c0,5.93,0.79,8.9,2.36,8.9c0.51,0,0.86-0.14,1.04-0.39V13.4z"/>
		<path class="st0" d="M77.84,24.57c0.21,4.16,1.07,6.24,2.61,6.24c1.11,0,2.03-0.55,2.76-1.65l0.55,3.43
			c-0.86,1.36-2.05,2.05-3.58,2.05c-1.46,0-2.6-1.08-3.42-3.23c-0.81-2.15-1.22-5.25-1.22-9.28c0-3.77,0.39-6.77,1.16-9.02
			c0.77-2.23,1.81-3.35,3.11-3.35c1.37,0,2.4,1.12,3.1,3.35c0.7,2.25,1.01,5.46,0.93,9.64L77.84,24.57z M79.75,13.27
			c-0.6,0-1.09,0.75-1.47,2.27c-0.38,1.51-0.56,3.46-0.55,5.84l3.8-1.25C81.5,15.55,80.91,13.27,79.75,13.27"/>
		<path class="st0" d="M98.74,34.19l-0.97-7.74H93.8l-0.98,7.74h-2.2l4.26-30.63h2.19l4.19,30.63H98.74z M96.28,13.62l-0.44-4.14
			h-0.03c-0.06,0.71-0.21,2.1-0.44,4.14l-1.19,9.44h3.18L96.28,13.62z"/>
		<path class="st0" d="M105.8,34.46c-0.86,0-1.53-0.57-2.02-1.71c-0.48-1.15-0.72-2.75-0.72-4.79V13.66h-1.05v-3.47h1.05V4.85
			l2.3-1.6v6.94h1.69v3.47h-1.69v13.85c0,2.14,0.37,3.21,1.1,3.21c0.16,0,0.36-0.06,0.59-0.18v3.43
			C106.69,34.3,106.27,34.46,105.8,34.46"/>
		<path class="st0" d="M110.73,24.57c0.21,4.16,1.07,6.24,2.61,6.24c1.11,0,2.03-0.55,2.76-1.65l0.55,3.43
			c-0.86,1.36-2.05,2.05-3.58,2.05c-1.46,0-2.6-1.08-3.42-3.23c-0.81-2.15-1.22-5.25-1.22-9.28c0-3.77,0.39-6.77,1.16-9.02
			c0.77-2.23,1.81-3.35,3.11-3.35c1.37,0,2.4,1.12,3.1,3.35c0.7,2.25,1.01,5.46,0.93,9.64L110.73,24.57z M112.63,13.27
			c-0.6,0-1.09,0.75-1.47,2.27c-0.38,1.51-0.56,3.46-0.55,5.84l3.8-1.25C114.38,15.55,113.79,13.27,112.63,13.27"/>
		<path class="st0" d="M124.5,34.19V17.05c0-2.56-0.56-3.83-1.69-3.83c-0.53,0-1.03,0.2-1.5,0.58v20.39h-2.33V11.53
			c0.98-1.19,2.29-1.78,3.93-1.78c2.61,0,3.9,2.43,3.9,7.3v17.14H124.5z"/>
		<path class="st0" d="M133.63,34.64c-1.47,0-2.61-1.07-3.41-3.21c-0.8-2.14-1.2-5.15-1.2-9.04c0-3.86,0.4-6.93,1.21-9.22
			c0.79-2.2,1.83-3.29,3.11-3.29c0.52,0,0.99,0.15,1.4,0.44V0h2.32v32.85C136.24,34.04,135.09,34.64,133.63,34.64 M134.75,13.4
			c-0.49-0.18-0.78-0.27-0.9-0.27c-1.67,0-2.5,2.99-2.5,8.99c0,5.93,0.79,8.9,2.36,8.9c0.51,0,0.86-0.14,1.04-0.39V13.4z"/>
		<path class="st0" d="M141.74,5.11c-0.24,0.51-0.56,0.76-0.92,0.76c-0.36,0-0.67-0.26-0.92-0.76c-0.26-0.5-0.39-1.12-0.39-1.87
			s0.13-1.38,0.39-1.89c0.26-0.52,0.56-0.78,0.92-0.78c0.37,0,0.68,0.26,0.92,0.78c0.25,0.51,0.38,1.15,0.38,1.89
			S141.99,4.62,141.74,5.11 M139.64,10.19h2.34v24h-2.34V10.19z"/>
		<path class="st0" d="M155.55,34.19V17.05c0-2.52-0.53-3.78-1.6-3.78c-0.62,0-1.13,0.49-1.56,1.46v19.46h-2.33V17.05
			c0-1.13-0.15-2.05-0.47-2.76c-0.31-0.71-0.74-1.07-1.28-1.07c-0.56,0-1.04,0.2-1.42,0.58v20.39h-2.33V11.53
			c0.99-1.19,2.25-1.78,3.77-1.78c1.45,0,2.49,0.81,3.13,2.45c0.76-1.63,1.81-2.45,3.14-2.45c0.97,0,1.74,0.62,2.33,1.87
			c0.62,1.33,0.94,3.14,0.94,5.43v17.14H155.55z"/>
		<path class="st0" d="M162.37,24.57c0.21,4.16,1.07,6.24,2.61,6.24c1.11,0,2.03-0.55,2.76-1.65l0.55,3.43
			c-0.86,1.36-2.05,2.05-3.58,2.05c-1.46,0-2.6-1.08-3.42-3.23c-0.81-2.15-1.22-5.25-1.22-9.28c0-3.77,0.39-6.77,1.16-9.02
			c0.77-2.23,1.81-3.35,3.11-3.35c1.37,0,2.4,1.12,3.1,3.35c0.7,2.25,1.01,5.46,0.93,9.64L162.37,24.57z M164.28,13.27
			c-0.6,0-1.09,0.75-1.47,2.27c-0.38,1.51-0.56,3.46-0.55,5.84l3.8-1.25C166.02,15.55,165.43,13.27,164.28,13.27"/>
		<path class="st0" d="M176.14,34.19V17.05c0-2.56-0.56-3.83-1.69-3.83c-0.53,0-1.03,0.2-1.5,0.58v20.39h-2.33V11.53
			c0.98-1.19,2.29-1.78,3.93-1.78c2.61,0,3.9,2.43,3.9,7.3v17.14H176.14z"/>
		<path class="st0" d="M184.3,34.46c-0.86,0-1.53-0.57-2.02-1.71c-0.48-1.15-0.72-2.75-0.72-4.79V13.66h-1.05v-3.47h1.05V4.85
			l2.3-1.6v6.94h1.69v3.47h-1.69v13.85c0,2.14,0.37,3.21,1.1,3.21c0.16,0,0.36-0.06,0.59-0.18v3.43
			C185.19,34.3,184.78,34.46,184.3,34.46"/>
		<path class="st0" d="M194.2,31.03c-0.72,2.4-1.75,3.61-3.11,3.61c-1.38,0-2.43-1.21-3.16-3.61c-0.68-2.19-1.01-5.13-1.01-8.81
			c0-3.71,0.33-6.67,1.01-8.91c0.73-2.37,1.77-3.56,3.14-3.56c1.37,0,2.42,1.19,3.16,3.56c0.66,2.2,0.98,5.17,0.98,8.91
			C195.21,25.89,194.88,28.84,194.2,31.03 M191.09,13.22c-1.22,0-1.81,2.97-1.81,8.91c0,5.78,0.6,8.68,1.81,8.68
			c1.19,0,1.78-2.89,1.78-8.68C192.87,16.19,192.28,13.22,191.09,13.22"/>
		<path class="st0" d="M206.57,34.63c-1.32,0-2.32-0.65-3.01-1.96c-0.68-1.3-1.03-3.11-1.03-5.43c0-2.88,0.52-5.05,1.56-6.5
			c0.85-1.19,2.13-1.99,3.86-2.4v-1.03c0-2.67-0.62-4-1.87-4c-0.87,0-1.69,0.45-2.46,1.38l-0.5-3.16c0.98-1.19,2.11-1.78,3.38-1.78
			c2.46,0,3.69,2.77,3.69,8.32v14.79C209.33,34.04,208.12,34.63,206.57,34.63 M207.95,21.23c-1.12,0.36-1.93,0.93-2.41,1.74
			c-0.54,0.89-0.81,2.27-0.81,4.14c0,2.85,0.66,4.28,1.98,4.28c0.53,0,0.94-0.18,1.25-0.54V21.23z"/>
		<path class="st0" d="M219.67,31.03c-0.72,2.4-1.75,3.61-3.11,3.61c-1.38,0-2.43-1.21-3.16-3.61c-0.68-2.19-1.01-5.13-1.01-8.81
			c0-3.71,0.33-6.67,1.01-8.91c0.73-2.37,1.77-3.56,3.14-3.56c1.37,0,2.42,1.19,3.16,3.56c0.66,2.2,0.98,5.17,0.98,8.91
			C220.68,25.89,220.34,28.84,219.67,31.03 M216.55,13.22c-1.22,0-1.81,2.97-1.81,8.91c0,5.78,0.6,8.68,1.81,8.68
			c1.19,0,1.78-2.89,1.78-8.68C218.33,16.19,217.74,13.22,216.55,13.22"/>
		<path class="st0" d="M233.48,34.64c-1.61,0-2.9-1.53-3.88-4.59c-0.92-2.94-1.38-6.67-1.38-11.18c0-4.48,0.45-8.19,1.38-11.13
			c0.97-3.09,2.27-4.63,3.88-4.63c1.26,0,2.3,0.59,3.14,1.78l-0.57,3.47c-0.62-0.86-1.31-1.29-2.08-1.29
			c-1.09,0-1.91,1.15-2.46,3.43c-0.52,2.07-0.77,4.87-0.77,8.37s0.26,6.28,0.79,8.33c0.56,2.22,1.37,3.34,2.44,3.34
			c0.76,0,1.45-0.41,2.08-1.25l0.57,3.57C235.86,34.04,234.8,34.64,233.48,34.64"/>
		<path class="st0" d="M244.95,31.03c-0.72,2.4-1.75,3.61-3.11,3.61c-1.38,0-2.43-1.21-3.16-3.61c-0.68-2.19-1.01-5.13-1.01-8.81
			c0-3.71,0.33-6.67,1.01-8.91c0.73-2.37,1.77-3.56,3.14-3.56c1.37,0,2.42,1.19,3.16,3.56c0.66,2.2,0.98,5.17,0.98,8.91
			C245.96,25.89,245.63,28.84,244.95,31.03 M241.84,13.22c-1.22,0-1.81,2.97-1.81,8.91c0,5.78,0.6,8.68,1.81,8.68
			c1.19,0,1.78-2.89,1.78-8.68C243.62,16.19,243.03,13.22,241.84,13.22"/>
		<path class="st0" d="M253.64,34.19V17.05c0-2.56-0.56-3.83-1.69-3.83c-0.53,0-1.03,0.2-1.5,0.58v20.39h-2.33V11.53
			c0.98-1.19,2.29-1.78,3.93-1.78c2.61,0,3.9,2.43,3.9,7.3v17.14H253.64z"/>
		<path class="st0" d="M263.36,32.7c-0.7,1.29-1.57,1.94-2.59,1.94c-1.3,0-2.29-0.63-2.98-1.87l0.74-3.47
			c0.48,0.98,1.12,1.46,1.93,1.46c0.42,0,0.77-0.26,1.06-0.77c0.28-0.52,0.43-1.2,0.43-2.03c0-0.92-0.14-1.72-0.42-2.4
			c-0.19-0.5-0.59-1.22-1.21-2.14c-1.51-2.28-2.26-4.63-2.26-7.03c0-1.9,0.3-3.47,0.92-4.74c0.61-1.26,1.37-1.89,2.31-1.89
			c1.2,0,2.14,0.61,2.81,1.82l-0.66,3.07c-0.42-0.86-0.99-1.29-1.7-1.29c-0.39,0-0.7,0.26-0.96,0.76c-0.26,0.51-0.39,1.12-0.39,1.87
			c0,0.86,0.16,1.66,0.48,2.4c0.24,0.56,0.66,1.29,1.28,2.18c0.74,1.1,1.28,2.08,1.6,2.94c0.44,1.25,0.66,2.69,0.66,4.32
			C264.41,29.78,264.06,31.41,263.36,32.7"/>
		<path class="st0" d="M270.32,34.68c-2.6,0-3.91-2.71-3.91-8.15V10.19h2.35v16.87c0,2.58,0.55,3.88,1.64,3.88
			c0.54,0,1.01-0.25,1.4-0.75v-20h2.34v22.53C273.24,34.03,271.96,34.68,270.32,34.68"/>
		<path class="st0" d="M287.65,34.19V17.05c0-2.52-0.53-3.78-1.6-3.78c-0.62,0-1.14,0.49-1.56,1.46v19.46h-2.33V17.05
			c0-1.13-0.16-2.05-0.47-2.76c-0.32-0.71-0.74-1.07-1.28-1.07c-0.57,0-1.04,0.2-1.43,0.58v20.39h-2.33V11.53
			c1-1.19,2.26-1.78,3.77-1.78c1.45,0,2.5,0.81,3.14,2.45c0.76-1.63,1.81-2.45,3.14-2.45c0.96,0,1.74,0.62,2.32,1.87
			c0.63,1.33,0.94,3.14,0.94,5.43v17.14H287.65z"/>
		<path class="st0" d="M294.64,5.11c-0.25,0.51-0.56,0.76-0.92,0.76c-0.37,0-0.68-0.26-0.94-0.76c-0.26-0.5-0.39-1.12-0.39-1.87
			s0.13-1.38,0.39-1.89c0.26-0.52,0.57-0.78,0.94-0.78c0.36,0,0.67,0.26,0.92,0.78c0.25,0.51,0.37,1.15,0.37,1.89
			S294.89,4.62,294.64,5.11 M292.53,10.19h2.34v24h-2.34V10.19z"/>
		<path class="st0" d="M301.75,34.64c-1.47,0-2.61-1.07-3.41-3.21c-0.8-2.14-1.2-5.15-1.2-9.04c0-3.86,0.4-6.93,1.21-9.22
			c0.79-2.2,1.83-3.29,3.11-3.29c0.52,0,0.99,0.15,1.4,0.44V0h2.33v32.85C304.36,34.04,303.22,34.64,301.75,34.64 M302.87,13.4
			c-0.48-0.18-0.78-0.27-0.9-0.27c-1.67,0-2.5,2.99-2.5,8.99c0,5.93,0.79,8.9,2.36,8.9c0.51,0,0.86-0.14,1.04-0.39V13.4z"/>
		<path class="st0" d="M314.68,31.03c-0.72,2.4-1.75,3.61-3.11,3.61c-1.38,0-2.43-1.21-3.16-3.61c-0.68-2.19-1.01-5.13-1.01-8.81
			c0-3.71,0.33-6.67,1.01-8.91c0.73-2.37,1.78-3.56,3.14-3.56c1.37,0,2.42,1.19,3.16,3.56c0.65,2.2,0.98,5.17,0.98,8.91
			C315.69,25.89,315.35,28.84,314.68,31.03 M311.56,13.22c-1.22,0-1.82,2.97-1.82,8.91c0,5.78,0.61,8.68,1.82,8.68
			c1.19,0,1.78-2.89,1.78-8.68C313.34,16.19,312.75,13.22,311.56,13.22"/>
		<path class="st0" d="M322.75,13.76c-0.43-0.27-0.86-0.4-1.29-0.4c-0.54,0-0.97,0.2-1.28,0.58v20.25h-2.33V11.48
			c1.17-1.16,2.49-1.73,3.95-1.73c0.39,0,0.86,0.06,1.43,0.17L322.75,13.76z"/>
		<path class="st0" d="M152.19,117.18c-0.9,1.24-2,1.86-3.3,1.86c-1.76,0-3.05-0.59-3.88-1.77l0.81-2.82c0.68,1,1.6,1.5,2.76,1.5
			c0.66,0,1.22-0.3,1.65-0.9c0.44-0.61,0.66-1.39,0.66-2.36c0-1.12-0.2-2.05-0.6-2.78c-0.28-0.53-0.85-1.27-1.71-2.21
			c-2.11-2.27-3.16-4.61-3.16-7.06c0-1.8,0.39-3.29,1.16-4.48c0.77-1.19,1.75-1.79,2.95-1.79c1.52,0,2.71,0.59,3.58,1.77l-0.72,2.47
			c-0.67-0.92-1.49-1.37-2.5-1.37c-0.56,0-1.03,0.3-1.41,0.9c-0.38,0.61-0.56,1.32-0.56,2.15c0,1,0.24,1.91,0.72,2.73
			c0.33,0.56,0.91,1.3,1.77,2.22c1.03,1.08,1.75,2.07,2.19,2.95c0.62,1.27,0.93,2.72,0.93,4.36
			C153.54,114.4,153.08,115.94,152.19,117.18"/>
		<path class="st0" d="M161.21,119.04c-1.73,0-3.05-0.66-3.97-1.99c-0.86-1.23-1.29-2.95-1.29-5.17c0-2.88,0.75-5.06,2.26-6.53
			c1.16-1.15,2.91-1.94,5.25-2.38v-1.15c0-3.09-0.94-4.64-2.82-4.64c-1.16,0-2.25,0.47-3.28,1.41l-0.56-2.46
			c1.2-1.18,2.6-1.77,4.2-1.77c3.23,0,4.83,2.6,4.83,7.81v15.09C164.63,118.45,163.08,119.04,161.21,119.04 M159.64,107.21
			c-0.88,1-1.32,2.54-1.32,4.64c0,3.11,1.02,4.67,3.06,4.67c0.84,0,1.51-0.22,2.04-0.66l0.03-10.51
			C161.65,105.77,160.38,106.39,159.64,107.21"/>
		<path class="st0" d="M177.27,118.24c-0.82,0.53-1.65,0.8-2.49,0.8c-1.75,0-3.13-1.1-4.18-3.31c-1.04-2.21-1.56-5.22-1.56-9.05
			c0-3.85,0.52-6.86,1.57-9.04c1.05-2.17,2.46-3.27,4.22-3.27c1.39,0,2.61,0.62,3.64,1.86l-0.63,2.43
			c-0.74-0.94-1.61-1.41-2.58-1.41c-2.45,0-3.66,3.11-3.66,9.31c0,6.42,1.22,9.62,3.63,9.62c1.13,0,2.01-0.47,2.64-1.41l0.61,2.43
			C178.27,117.51,177.87,117.86,177.27,118.24"/>
		<path class="st0" d="M194.02,113.83c-0.15,0-0.3,0.09-0.38,0.22c-0.74,1.42-1.43,2.45-2.02,3.06c-1.1,1.17-2.39,1.75-3.9,1.75
			c-1.67,0-3-0.89-4.1-2.72c-1.11-1.87-1.68-4.43-1.68-7.6c0-3.87,0.71-7.3,2.11-10.21c1.42-2.91,3.13-4.38,5.08-4.38
			c1.26,0,2.25,0.68,3.03,2.09c0.82,1.47,1.24,3.47,1.24,5.96c0,1.7-0.26,3.71-0.75,6c-0.84,3.7-1.63,3.88-1.77,3.88
			c-0.05,0-0.16,0-0.23-0.35c-0.02-0.11-0.04-0.43-0.05-1.28c0.18-2.56,0.35-4.35,0.51-5.49l0.62-5.07c0.02-0.11-0.03-0.23-0.1-0.33
			c-0.08-0.09-0.2-0.15-0.32-0.15h-1.11c-0.21,0-0.4,0.16-0.43,0.38l-0.07,0.58c-0.09-0.23-0.18-0.41-0.27-0.56
			c-0.4-0.64-0.98-0.98-1.69-0.98c-1.36,0-2.43,1.19-3.28,3.64c-0.69,1.97-1.04,4.06-1.04,6.23c0,1.55,0.2,2.86,0.58,3.88
			c0.48,1.29,1.22,1.95,2.16,1.95c0.94,0,1.78-0.64,2.56-1.95c0.25,1.34,0.85,2.03,1.76,2.03c1.5,0,2.67-1.55,3.57-4.72
			c0.72-2.51,1.09-5.09,1.09-7.68c0-3.11-0.54-5.61-1.59-7.43c-1.1-1.88-2.58-2.85-4.39-2.85c-2.52,0-4.71,1.71-6.46,5.09
			c-1.72,3.29-2.58,7.21-2.58,11.69c0,3.82,0.71,6.92,2.11,9.22c1.39,2.29,3.23,3.46,5.48,3.46c1.82,0,3.38-0.62,4.62-1.83
			c0.74-0.72,1.57-1.96,2.56-3.8c0.07-0.12,0.08-0.26,0.02-0.38l-0.51-1.09C194.35,113.92,194.23,113.85,194.02,113.83
			 M186.68,111.77c-0.97,0-1.1-2.11-1.1-3.37c0-1.63,0.21-3.23,0.62-4.74c0.33-1.14,0.87-2.5,1.67-2.5c0.33,0,0.61,0.43,0.79,0.8
			c0.3,0.62,0.44,1.51,0.43,2.68c-0.01,1.58-0.26,3.16-0.72,4.67C187.89,110.9,187.29,111.77,186.68,111.77"/>
		<path class="st0" d="M206.92,115.46c-1.08,2.38-2.64,3.58-4.66,3.58c-1.81,0-3.19-0.59-4.18-1.77V84.7h2.49v10.73
			c0.61-0.62,1.46-0.93,2.58-0.93c1.6,0,2.89,1.06,3.86,3.17c0.98,2.12,1.45,4.96,1.45,8.52
			C208.48,110.14,207.96,113.23,206.92,115.46 M205.21,99.75c-0.6-1.82-1.46-2.74-2.58-2.74c-0.8,0-1.48,0.27-2.05,0.8v17.96
			c0.49,0.33,1.06,0.49,1.75,0.49c2.46,0,3.7-3.29,3.7-9.89C206.02,103.64,205.75,101.43,205.21,99.75"/>
		<path class="st0" d="M216.41,119.04c-1.73,0-3.05-0.66-3.97-1.99c-0.86-1.23-1.29-2.95-1.29-5.17c0-2.88,0.75-5.06,2.26-6.53
			c1.16-1.15,2.91-1.94,5.25-2.38v-1.15c0-3.09-0.94-4.64-2.82-4.64c-1.16,0-2.25,0.47-3.28,1.41L212,96.14
			c1.2-1.18,2.6-1.77,4.2-1.77c3.23,0,4.83,2.6,4.83,7.81v15.09C219.84,118.45,218.29,119.04,216.41,119.04 M214.85,107.21
			c-0.88,1-1.32,2.54-1.32,4.64c0,3.11,1.02,4.67,3.06,4.67c0.84,0,1.51-0.22,2.04-0.66l0.03-10.51
			C216.86,105.77,215.58,106.39,214.85,107.21"/>
		<path class="st0" d="M229.66,119.08c-3.33,0-4.99-2.62-4.99-7.86V94.81h2.52v16.86c0,3,0.87,4.5,2.61,4.5
			c0.86,0,1.63-0.31,2.28-0.93V94.81h2.49v22.28C233.33,118.42,231.69,119.08,229.66,119.08"/>
		<path class="st0" d="M244.43,117.18c-0.9,1.24-2,1.86-3.3,1.86c-1.76,0-3.05-0.59-3.88-1.77l0.81-2.82c0.68,1,1.6,1.5,2.76,1.5
			c0.66,0,1.22-0.3,1.65-0.9c0.44-0.61,0.66-1.39,0.66-2.36c0-1.12-0.2-2.05-0.6-2.78c-0.28-0.53-0.85-1.27-1.71-2.21
			c-2.11-2.27-3.16-4.61-3.16-7.06c0-1.8,0.39-3.29,1.16-4.48c0.77-1.19,1.75-1.79,2.95-1.79c1.52,0,2.71,0.59,3.58,1.77l-0.72,2.47
			c-0.67-0.92-1.49-1.37-2.5-1.37c-0.56,0-1.03,0.3-1.41,0.9c-0.38,0.61-0.56,1.32-0.56,2.15c0,1,0.24,1.91,0.72,2.73
			c0.33,0.56,0.91,1.3,1.77,2.22c1.03,1.08,1.75,2.07,2.19,2.95c0.62,1.27,0.93,2.72,0.93,4.36
			C245.78,114.4,245.33,115.94,244.43,117.18"/>
		<path class="st0" d="M256.57,118.24c-0.82,0.53-1.65,0.8-2.49,0.8c-1.75,0-3.13-1.1-4.18-3.31c-1.04-2.21-1.56-5.22-1.56-9.05
			c0-3.85,0.52-6.86,1.57-9.04c1.05-2.17,2.46-3.27,4.22-3.27c1.39,0,2.61,0.62,3.64,1.86l-0.63,2.43
			c-0.74-0.94-1.61-1.41-2.58-1.41c-2.45,0-3.66,3.11-3.66,9.31c0,6.42,1.22,9.62,3.63,9.62c1.13,0,2.01-0.47,2.64-1.41l0.61,2.43
			C257.57,117.51,257.17,117.86,256.57,118.24"/>
		<path class="st0" d="M267.99,118.6v-17.12c0-1.39-0.24-2.46-0.71-3.22c-0.47-0.77-1.08-1.16-1.84-1.16
			c-0.92,0-1.76,0.36-2.52,1.06v20.43h-2.5V84.7h2.5v10.94c0.96-0.86,1.95-1.28,2.97-1.28c1.4,0,2.52,0.61,3.35,1.81
			c0.83,1.21,1.24,2.97,1.24,5.3v17.12H267.99z"/>
		<path class="st0" d="M276.91,118.07c-0.34,0.51-0.75,0.75-1.23,0.75c-0.48,0-0.9-0.25-1.25-0.75c-0.35-0.5-0.52-1.1-0.52-1.81
			c0-0.71,0.17-1.32,0.52-1.83c0.35-0.51,0.76-0.78,1.22-0.78c0.5,0,0.92,0.26,1.26,0.75c0.34,0.5,0.51,1.1,0.51,1.81
			C277.42,116.95,277.25,117.57,276.91,118.07"/>
		<path class="st0" d="M288.69,118.24c-0.82,0.53-1.65,0.8-2.49,0.8c-1.75,0-3.13-1.1-4.18-3.31s-1.56-5.22-1.56-9.05
			c0-3.85,0.52-6.86,1.57-9.04c1.05-2.17,2.46-3.27,4.22-3.27c1.39,0,2.61,0.62,3.64,1.86l-0.63,2.43
			c-0.74-0.94-1.61-1.41-2.58-1.41c-2.45,0-3.66,3.11-3.66,9.31c0,6.42,1.22,9.62,3.63,9.62c1.13,0,2.01-0.47,2.64-1.41l0.61,2.43
			C289.7,117.51,289.29,117.86,288.69,118.24"/>
		<path class="st0" d="M301.19,115.46c-0.93,2.38-2.31,3.58-4.11,3.58c-1.82,0-3.21-1.2-4.14-3.58c-0.86-2.18-1.29-5.09-1.29-8.74
			c0-3.71,0.42-6.64,1.26-8.79c0.94-2.38,2.33-3.58,4.15-3.58c1.81,0,3.2,1.2,4.13,3.58c0.85,2.15,1.27,5.07,1.27,8.79
			C302.45,110.4,302.03,113.32,301.19,115.46 M297.08,97.01c-1.94,0-2.91,3.22-2.91,9.66c0,6.27,0.97,9.4,2.91,9.4
			c1.93,0,2.88-3.13,2.88-9.4C299.96,100.23,299.01,97.01,297.08,97.01"/>
		<path class="st0" d="M320.8,118.6v-17.21c0-2.82-0.83-4.24-2.5-4.24c-0.99,0-1.85,0.61-2.55,1.85v19.6h-2.49v-17.17
			c0-1.27-0.26-2.3-0.77-3.11c-0.5-0.8-1.18-1.22-2.03-1.22c-0.88,0-1.63,0.22-2.28,0.66v20.84h-2.5V96.13
			c1.28-1.18,2.9-1.77,4.84-1.77c1.93,0,3.33,0.87,4.18,2.61c1.06-1.74,2.46-2.61,4.23-2.61c1.27,0,2.31,0.62,3.14,1.86
			c0.83,1.24,1.25,2.95,1.25,5.17v17.21H320.8z"/>
		<path class="st0" d="M157.15,74.32c-1.14,3.53-2.89,5.31-5.27,5.31c-2.36,0-4.12-1.77-5.28-5.31c-0.9-2.76-1.35-6.25-1.35-10.47
			c0-4.21,0.45-7.7,1.35-10.46c1.14-3.53,2.9-5.31,5.28-5.31s4.13,1.77,5.27,5.31c0.91,2.76,1.36,6.25,1.36,10.46
			C158.51,68.07,158.05,71.56,157.15,74.32 M153.36,56.29c-0.28-1.93-0.78-2.89-1.49-2.89c-0.71,0-1.21,0.96-1.5,2.89
			c-0.22,1.6-0.34,4.1-0.34,7.48c0,3.35,0.12,5.82,0.34,7.39c0.29,1.93,0.79,2.89,1.5,2.89c0.71,0,1.21-0.97,1.49-2.89
			c0.23-1.57,0.35-4.04,0.35-7.39C153.71,60.38,153.59,57.89,153.36,56.29"/>
		<path class="st0" d="M171.96,77.34c-1.22,1.51-2.83,2.28-4.83,2.28c-1.96,0-3.54-0.74-4.77-2.19c-1.22-1.45-1.83-3.48-1.83-6.1
			c0-1.75,0.3-3.26,0.9-4.54c0.52-1.13,1.37-2.28,2.56-3.47c-1.97-2.2-2.95-4.65-2.95-7.35c0-2.34,0.57-4.24,1.71-5.7
			c1.15-1.45,2.61-2.17,4.39-2.17c1.81,0,3.29,0.72,4.43,2.16c1.14,1.44,1.71,3.33,1.71,5.67c0,2.7-0.99,5.07-2.98,7.09
			c2.33,2.46,3.48,5.21,3.48,8.23C173.77,73.79,173.17,75.83,171.96,77.34 M168.45,68.39c-0.25-0.5-0.72-1.13-1.41-1.87
			c-0.8,0.83-1.33,1.57-1.61,2.25c-0.27,0.67-0.42,1.43-0.42,2.29c0,0.82,0.21,1.56,0.61,2.17c0.39,0.62,0.88,0.93,1.45,0.93
			c0.59,0,1.06-0.27,1.41-0.84c0.36-0.56,0.53-1.29,0.53-2.18C169.01,70.09,168.83,69.16,168.45,68.39 M168.57,53.81
			c-0.35-0.55-0.79-0.82-1.32-0.82c-0.53,0-0.97,0.27-1.31,0.82c-0.33,0.55-0.5,1.22-0.5,2.03c0,0.77,0.13,1.44,0.38,2
			c0.25,0.56,0.74,1.28,1.46,2.14c0.71-0.8,1.19-1.5,1.44-2.07c0.25-0.58,0.38-1.25,0.38-2.03
			C169.09,55.05,168.92,54.36,168.57,53.81"/>
		<path class="st0" d="M187.69,74.32c-1.14,3.53-2.89,5.31-5.27,5.31c-2.36,0-4.12-1.77-5.28-5.31c-0.9-2.76-1.35-6.25-1.35-10.47
			c0-4.21,0.45-7.7,1.35-10.46c1.14-3.53,2.9-5.31,5.28-5.31c2.38,0,4.13,1.77,5.27,5.31c0.91,2.76,1.36,6.25,1.36,10.46
			C189.05,68.07,188.6,71.56,187.69,74.32 M183.91,56.29c-0.28-1.93-0.78-2.89-1.49-2.89c-0.71,0-1.21,0.96-1.5,2.89
			c-0.22,1.6-0.34,4.1-0.34,7.48c0,3.35,0.12,5.82,0.34,7.39c0.29,1.93,0.79,2.89,1.5,2.89c0.71,0,1.21-0.97,1.49-2.89
			c0.23-1.57,0.35-4.04,0.35-7.39C184.26,60.38,184.14,57.89,183.91,56.29"/>
		<path class="st0" d="M202.96,74.32c-1.14,3.53-2.89,5.31-5.27,5.31c-2.36,0-4.12-1.77-5.28-5.31c-0.9-2.76-1.35-6.25-1.35-10.47
			c0-4.21,0.45-7.7,1.35-10.46c1.14-3.53,2.9-5.31,5.28-5.31s4.13,1.77,5.27,5.31c0.91,2.76,1.36,6.25,1.36,10.46
			C204.32,68.07,203.86,71.56,202.96,74.32 M199.18,56.29c-0.28-1.93-0.78-2.89-1.49-2.89c-0.71,0-1.21,0.96-1.5,2.89
			c-0.22,1.6-0.34,4.1-0.34,7.48c0,3.35,0.12,5.82,0.34,7.39c0.29,1.93,0.79,2.89,1.5,2.89c0.71,0,1.21-0.97,1.49-2.89
			c0.23-1.57,0.35-4.04,0.35-7.39C199.53,60.38,199.41,57.89,199.18,56.29"/>
		<path class="st0" d="M223.52,58.33c-2.2,8.16-3.62,15.11-4.26,20.84h-5.91l6.61-23.69h-7.7v-6.95h13.91L223.52,58.33z"/>
		<path class="st0" d="M239.27,74.32c-1.14,3.53-2.89,5.31-5.27,5.31c-2.36,0-4.12-1.77-5.28-5.31c-0.9-2.76-1.35-6.25-1.35-10.47
			c0-4.21,0.45-7.7,1.35-10.46c1.14-3.53,2.9-5.31,5.28-5.31s4.13,1.77,5.27,5.31c0.91,2.76,1.36,6.25,1.36,10.46
			C240.63,68.07,240.17,71.56,239.27,74.32 M235.48,56.29c-0.28-1.93-0.78-2.89-1.49-2.89c-0.71,0-1.21,0.96-1.5,2.89
			c-0.22,1.6-0.34,4.1-0.34,7.48c0,3.35,0.12,5.82,0.34,7.39c0.29,1.93,0.79,2.89,1.5,2.89c0.71,0,1.21-0.97,1.49-2.89
			c0.23-1.57,0.35-4.04,0.35-7.39C235.83,60.38,235.71,57.89,235.48,56.29"/>
		<path class="st0" d="M242.31,79.17v-4.72l2.75-4.41c1.38-2.22,2.36-3.91,2.93-5.07c1.33-2.76,1.99-5.15,1.99-7.17
			c0-2.49-0.88-3.74-2.66-3.74c-0.63,0-1.28,0.2-1.94,0.58l-1.3,0.85l-1.31-5.3c1.67-1.39,3.5-2.1,5.49-2.1
			c2.34,0,4.13,0.95,5.36,2.85c1.01,1.61,1.52,3.61,1.52,6.02c0,2.11-0.59,4.54-1.76,7.3c-0.61,1.42-1.59,3.35-2.96,5.78l-1.2,2.14
			h5.96v6.99H242.31z"/>
		<path class="st0" d="M275.17,76.9c-1.19,1.81-2.79,2.71-4.79,2.71c-2.29,0-4.01-1.27-5.17-3.82c-0.96-2.11-1.44-4.84-1.44-8.2
			c0-5.84,1.28-10.67,3.83-14.47c1.98-2.88,4.01-4.53,6.13-4.94l1.23,5.52c-2.64,0.92-4.49,3.13-5.6,6.63
			c0.45-0.21,0.92-0.31,1.39-0.31c1.67,0,3.05,0.67,4.15,2c1.37,1.66,2.05,4.18,2.05,7.57C276.96,72.66,276.36,75.09,275.17,76.9
			 M269.63,64.25c-0.33,0-0.67,0.1-1.04,0.32c-0.12,0.92-0.19,2.03-0.19,3.34c0,4.18,0.68,6.27,2.03,6.27c1.19,0,1.79-1.7,1.79-5.12
			C272.22,65.85,271.35,64.25,269.63,64.25"/>
		<path class="st0" d="M290.84,73.56v5.6h-4.71v-5.6h-7.4v-4.9l7.03-20.13h5.08v19.78h1.89v5.25H290.84z M286.24,56.51
			c-0.15,0.59-0.54,1.97-1.2,4.14l-2.64,7.66h3.72v-7.52c0-1.43,0.06-2.85,0.16-4.28H286.24z"/>
		<path class="st0" d="M305.71,76.9c-1.19,1.81-2.78,2.71-4.79,2.71c-2.29,0-4.01-1.27-5.17-3.82c-0.96-2.11-1.44-4.84-1.44-8.2
			c0-5.84,1.28-10.67,3.83-14.47c1.98-2.88,4.01-4.53,6.13-4.94l1.23,5.52c-2.64,0.92-4.5,3.13-5.6,6.63
			c0.46-0.21,0.92-0.31,1.38-0.31c1.68,0,3.06,0.67,4.16,2c1.37,1.66,2.05,4.18,2.05,7.57C307.5,72.66,306.91,75.09,305.71,76.9
			 M300.17,64.25c-0.33,0-0.67,0.1-1.04,0.32c-0.12,0.92-0.18,2.03-0.18,3.34c0,4.18,0.68,6.27,2.02,6.27c1.19,0,1.79-1.7,1.79-5.12
			C302.76,65.85,301.89,64.25,300.17,64.25"/>
		<path class="st0" d="M321.38,73.56v5.6h-4.71v-5.6h-7.4v-4.9l7.03-20.13h5.09v19.78h1.89v5.25H321.38z M316.77,56.51
			c-0.15,0.59-0.54,1.97-1.2,4.14l-2.64,7.66h3.73v-7.52c0-1.43,0.05-2.85,0.15-4.28H316.77z"/>
		<polygon class="st0" points="20.99,158.08 17.13,158.08 13.52,141.57 13.45,141.57 9.71,158.08 5.89,158.08 0.58,134.08 
			4.95,134.08 8.14,151.54 8.22,151.54 12,134.08 15.47,134.08 19.08,151.54 19.17,151.54 22.48,134.08 26.47,134.08 		"/>
		<polygon class="st0" points="49.21,158.08 45.35,158.08 41.74,141.57 41.66,141.57 37.92,158.08 34.11,158.08 28.8,134.08 
			33.16,134.08 36.36,151.54 36.43,151.54 40.22,134.08 43.69,134.08 47.3,151.54 47.39,151.54 50.7,134.08 54.69,134.08 		"/>
		<polygon class="st0" points="77.42,158.08 73.57,158.08 69.95,141.57 69.88,141.57 66.14,158.08 62.32,158.08 57.02,134.08 
			61.38,134.08 64.57,151.54 64.65,151.54 68.43,134.08 71.9,134.08 75.52,151.54 75.6,151.54 78.91,134.08 82.9,134.08 		"/>
		<path class="st0" d="M88.3,157.44c-0.58,0.61-1.28,0.92-2.11,0.92c-0.82,0-1.51-0.31-2.1-0.92c-0.58-0.61-0.87-1.34-0.87-2.2
			c0-0.86,0.3-1.6,0.89-2.21c0.6-0.61,1.29-0.92,2.08-0.92c0.82,0,1.52,0.31,2.11,0.92c0.57,0.61,0.87,1.34,0.87,2.21
			C89.18,156.09,88.88,156.83,88.3,157.44"/>
		<path class="st0" d="M106.97,155.01c-1.58,2.34-3.88,3.52-6.88,3.52c-2.8,0-4.92-0.59-6.36-1.78v-32.86h4.49v10.73
			c0.8-0.54,1.99-0.8,3.57-0.8c2.26,0,4.07,1.06,5.43,3.18c1.36,2.12,2.04,4.96,2.04,8.53
			C109.26,149.62,108.49,152.79,106.97,155.01 M103.83,139.61c-0.71-1.72-1.77-2.58-3.18-2.58c-0.93,0-1.74,0.21-2.42,0.62v16.96
			c0.57,0.3,1.25,0.44,2.04,0.44c3.03,0,4.54-3.08,4.54-9.26C104.8,143.19,104.48,141.12,103.83,139.61"/>
		<path class="st0" d="M120.58,158.53c-2.55,0-4.48-0.65-5.82-1.96c-1.33-1.3-1.99-3.11-1.99-5.43c0-2.88,1-5.05,3.01-6.5
			c1.64-1.19,4.13-1.99,7.47-2.4v-1.03c0-2.67-1.21-4-3.61-4c-1.69,0-3.28,0.45-4.75,1.38l-0.98-3.16c1.89-1.19,4.07-1.78,6.53-1.78
			c4.76,0,7.13,2.77,7.13,8.32v14.79C125.91,157.94,123.57,158.53,120.58,158.53 M123.25,145.13c-2.18,0.36-3.74,0.93-4.67,1.74
			c-1.04,0.89-1.57,2.27-1.57,4.14c0,2.85,1.27,4.28,3.82,4.28c1.02,0,1.82-0.18,2.42-0.54V145.13z"/>
		<path class="st0" d="M140.04,158.57c-5.03,0-7.56-2.71-7.56-8.15v-16.34h4.54v16.87c0,2.58,1.06,3.88,3.18,3.88
			c1.04,0,1.95-0.25,2.71-0.75v-20h4.54v22.53C145.68,157.92,143.2,158.57,140.04,158.57"/>
		<path class="st0" d="M161.83,156.59c-1.36,1.29-3.03,1.94-5.01,1.94c-2.52,0-4.44-0.63-5.78-1.87l1.45-3.47
			c0.93,0.98,2.18,1.46,3.73,1.46c0.82,0,1.51-0.26,2.06-0.77c0.55-0.52,0.83-1.2,0.83-2.03c0-0.92-0.27-1.72-0.81-2.4
			c-0.37-0.5-1.14-1.22-2.34-2.14c-2.91-2.28-4.36-4.63-4.36-7.03c0-1.9,0.59-3.47,1.76-4.74c1.17-1.26,2.66-1.89,4.48-1.89
			c2.32,0,4.13,0.61,5.43,1.82l-1.27,3.07c-0.82-0.86-1.93-1.29-3.31-1.29c-0.74,0-1.35,0.26-1.85,0.76
			c-0.5,0.51-0.74,1.12-0.74,1.87c0,0.86,0.31,1.66,0.92,2.4c0.45,0.56,1.28,1.29,2.46,2.18c1.45,1.1,2.48,2.08,3.1,2.94
			c0.85,1.25,1.28,2.69,1.28,4.32C163.87,153.67,163.19,155.3,161.83,156.59"/>
		<path class="st0" d="M175.64,158.53c-2.58,0-4.63-1.14-6.15-3.41c-1.52-2.28-2.29-5.3-2.29-9.06c0-3.8,0.77-6.82,2.31-9.06
			c1.54-2.24,3.62-3.36,6.22-3.36c1.98,0,3.75,0.6,5.31,1.78l-1.06,3.17c-1.19-0.86-2.32-1.29-3.4-1.29c-3.2,0-4.79,2.89-4.79,8.69
			c0,5.84,1.57,8.77,4.71,8.77c1.25,0,2.4-0.44,3.48-1.29l1.06,3.29C179.7,157.93,177.9,158.53,175.64,158.53"/>
		<path class="st0" d="M195.4,158.08v-17.1c0-2.58-1.06-3.88-3.18-3.88c-0.99,0-1.99,0.28-2.97,0.85v20.13h-4.5v-34.19h4.5v10.95
			c1.39-0.8,2.76-1.2,4.12-1.2c2.04,0,3.64,0.63,4.79,1.91c1.16,1.28,1.75,3.09,1.75,5.43v17.1H195.4z"/>
		<path class="st0" d="M209.58,157.44c-0.58,0.61-1.28,0.92-2.11,0.92c-0.82,0-1.51-0.31-2.1-0.92c-0.58-0.61-0.87-1.34-0.87-2.2
			c0-0.86,0.3-1.6,0.89-2.21c0.6-0.61,1.29-0.92,2.08-0.92c0.82,0,1.52,0.31,2.11,0.92c0.57,0.61,0.87,1.34,0.87,2.21
			C210.46,156.09,210.16,156.83,209.58,157.44"/>
		<path class="st0" d="M222.85,158.53c-2.58,0-4.63-1.14-6.15-3.41c-1.52-2.28-2.29-5.3-2.29-9.06c0-3.8,0.77-6.82,2.31-9.06
			c1.54-2.24,3.62-3.36,6.22-3.36c1.98,0,3.75,0.6,5.31,1.78l-1.06,3.17c-1.19-0.86-2.32-1.29-3.4-1.29c-3.2,0-4.79,2.89-4.79,8.69
			c0,5.84,1.57,8.77,4.71,8.77c1.25,0,2.4-0.44,3.48-1.29l1.06,3.29C226.91,157.93,225.11,158.53,222.85,158.53"/>
		<path class="st0" d="M244.78,154.92c-1.39,2.4-3.4,3.61-6.03,3.61c-2.66,0-4.7-1.21-6.11-3.61c-1.3-2.19-1.95-5.13-1.95-8.81
			c0-3.71,0.65-6.67,1.95-8.91c1.41-2.37,3.44-3.56,6.07-3.56c2.66,0,4.7,1.19,6.11,3.56c1.27,2.2,1.92,5.17,1.92,8.91
			C246.73,149.79,246.07,152.73,244.78,154.92 M238.75,137.11c-2.34,0-3.53,2.97-3.53,8.91c0,5.78,1.18,8.68,3.53,8.68
			c2.29,0,3.44-2.89,3.44-8.68C242.19,140.08,241.04,137.11,238.75,137.11"/>
		<path class="st0" d="M272.25,158.08v-17.14c0-2.52-1.04-3.78-3.1-3.78c-1.19,0-2.19,0.49-3.01,1.46v19.46h-4.5v-17.14
			c0-1.13-0.3-2.05-0.91-2.76c-0.61-0.71-1.44-1.07-2.48-1.07c-1.1,0-2.03,0.2-2.76,0.58v20.39H251v-22.66
			c1.92-1.19,4.36-1.78,7.3-1.78c2.8,0,4.82,0.81,6.07,2.45c1.47-1.63,3.49-2.45,6.07-2.45c1.87,0,3.36,0.62,4.49,1.87
			c1.22,1.33,1.83,3.14,1.83,5.43v17.14H272.25z"/>
		<path class="st0" d="M286.45,157.44c-0.57,0.61-1.28,0.92-2.1,0.92c-0.82,0-1.52-0.31-2.11-0.92c-0.58-0.61-0.86-1.34-0.86-2.2
			c0-0.86,0.29-1.6,0.89-2.21c0.59-0.61,1.28-0.92,2.08-0.92c0.82,0,1.52,0.31,2.1,0.92c0.58,0.61,0.87,1.34,0.87,2.21
			C287.32,156.09,287.03,156.83,286.45,157.44"/>
		<path class="st0" d="M305.11,155.01c-1.58,2.34-3.88,3.52-6.88,3.52c-2.8,0-4.92-0.59-6.36-1.78v-32.86h4.49v10.73
			c0.8-0.54,1.99-0.8,3.57-0.8c2.26,0,4.07,1.06,5.43,3.18c1.36,2.12,2.04,4.96,2.04,8.53
			C307.41,149.62,306.64,152.79,305.11,155.01 M301.97,139.61c-0.71-1.72-1.77-2.58-3.18-2.58c-0.93,0-1.74,0.21-2.42,0.62v16.96
			c0.57,0.3,1.25,0.44,2.04,0.44c3.03,0,4.54-3.08,4.54-9.26C302.95,143.19,302.62,141.12,301.97,139.61"/>
		<path class="st0" d="M321.18,137.65c-0.82-0.27-1.65-0.4-2.5-0.4c-1.05,0-1.87,0.2-2.47,0.58v20.25h-4.49v-22.71
			c2.27-1.16,4.81-1.73,7.64-1.73c0.76,0,1.68,0.06,2.76,0.17L321.18,137.65z"/>
		<polygon class="st0" points="63.59,86.08 68.53,86.08 66.06,77.72 		"/>
		<path class="st0" d="M0,118.87h134.53V48.22H0V118.87z M28.25,100.52c-5.37,0-10-1.94-13.06-4.59l4.36-6.99
			c3.06,2.44,5.71,3.59,8.57,3.59c1.57,0,2.69-0.7,2.69-1.82c0-1.57-1.25-2.17-5.26-3.38c-5.99-1.85-9.01-4.42-9.01-9.81
			c0-7.14,5.6-10.95,13.58-10.95c4.25,0,8.46,1.57,10.68,3.33l-4.35,7.17c-2.26-1.63-4.32-2.47-6.76-2.47
			c-2.06,0-2.83,0.89-2.83,1.85c0,1.04,0.77,1.67,5.1,2.91c5.94,1.73,9.18,4.01,9.18,10.2C41.13,96.12,36.18,100.52,28.25,100.52
			 M72.64,99.99l-1.75-6h-9.63l-1.75,6H48.99L60.4,67.1h11.89l11.39,32.89H72.64z M106.84,100.52c-9.99,0-17.15-7.02-17.15-16.85
			c0-9.82,7.44-17.11,17.33-17.11c5.29,0,8.8,2.26,11.64,4.68l-5.42,7.35c-1.84-1.79-3.59-3.06-6.42-3.06
			c-3.67,0-6.37,3.15-6.37,7.88c0,4.75,2.61,8.15,6.98,8.15c2.43,0,4.69-1.08,6.62-2.86l5.28,7.15
			C116.16,98.58,112.63,100.52,106.84,100.52"/>
	</g>
</g>
</svg>
