<?xml version="1.0" encoding="utf-8"?>
<!-- Generator: Adobe Illustrator 23.0.1, SVG Export Plug-In . SVG Version: 6.00 Build 0)  -->
<svg version="1.1" id="Layer_1" xmlns="http://www.w3.org/2000/svg" xmlns:xlink="http://www.w3.org/1999/xlink" x="0px" y="0px"
	 viewBox="0 0 52 312" style="enable-background:new 0 0 52 312;" xml:space="preserve">
<style type="text/css">
	.st0{fill:#253470;}
</style>
<g>
	<g>
		<g>
			<path class="st0" d="M32.74,288.98c-1.78-1.06-3.63-2.16-6.59-2.16c-3.07,0-4.91,1.22-6.69,2.39c-1.55,1.02-3,1.98-5.25,1.98
				c-2.25,0-3.7-0.96-5.24-1.97c-1.58-1.04-3.34-2.21-6.05-2.38v1.98c2.1,0.16,3.49,1.08,4.96,2.04c1.72,1.13,3.49,2.3,6.33,2.3
				c2.85,0,4.7-1.22,6.33-2.3c1.61-1.06,3.13-2.07,5.61-2.07c2.43,0,3.96,0.91,5.58,1.88c1.63,0.97,3.47,2.07,6.2,2.07
				c2.73,0,4.5-1.05,6.2-2.07c1.48-0.88,2.88-1.71,4.94-1.86v-1.98c-2.59,0.15-4.29,1.16-5.93,2.14c-1.57,0.93-3.02,1.79-5.2,1.79
				C35.75,290.77,34.29,289.9,32.74,288.98z"/>
		</g>
		<g>
			<path class="st0" d="M32.74,298.34c-1.7-1.01-3.62-2.16-6.59-2.16c-3.07,0-4.91,1.22-6.69,2.39c-1.54,1.02-2.99,1.98-5.25,1.98
				c-2.25,0-3.7-0.96-5.24-1.97c-1.66-1.09-3.36-2.22-6.05-2.38v1.98c2.1,0.16,3.49,1.08,4.96,2.05c1.71,1.13,3.49,2.3,6.33,2.3
				c2.85,0,4.62-1.17,6.33-2.3c1.61-1.06,3.13-2.07,5.61-2.07c2.42,0,3.96,0.91,5.58,1.88c1.63,0.97,3.47,2.07,6.21,2.07
				c2.73,0,4.5-1.05,6.2-2.07c1.48-0.88,2.88-1.72,4.93-1.86v-1.98c-2.59,0.15-4.29,1.16-5.93,2.14c-1.56,0.93-3.01,1.8-5.2,1.8
				C35.75,300.13,34.29,299.26,32.74,298.34z"/>
		</g>
		<g>
			<rect x="6.08" y="275.15" class="st0" width="1.72" height="5.46"/>
		</g>
		<g>
			<rect x="18.78" y="275.15" class="st0" width="1.72" height="5.46"/>
		</g>
		<g>
			<rect x="31.49" y="275.15" class="st0" width="1.72" height="5.46"/>
		</g>
		<g>
			<rect x="44.19" y="275.15" class="st0" width="1.72" height="5.46"/>
		</g>
		<g>
			<polygon class="st0" points="3.85,273.85 4.78,273.85 4.78,272.54 			"/>
		</g>
		<g>
			<polygon class="st0" points="10.03,273.85 9.1,272.54 9.1,273.85 			"/>
		</g>
		<g>
			<polygon class="st0" points="6.94,269.48 6.03,270.78 7.85,270.78 			"/>
		</g>
		<g>
			<rect x="6.08" y="272.08" class="st0" width="1.72" height="1.77"/>
		</g>
		<g>
			<polygon class="st0" points="7.85,270.78 6.03,270.78 5.57,271.43 8.32,271.43 			"/>
		</g>
		<g>
			<polygon class="st0" points="9.1,273.85 9.1,272.54 8.45,271.62 8.45,273.85 			"/>
		</g>
		<g>
			<polygon class="st0" points="4.78,272.54 4.78,273.85 5.43,273.85 5.43,271.62 			"/>
		</g>
		<g>
			<polygon class="st0" points="6.08,272.08 7.8,272.08 7.8,273.85 8.45,273.85 8.45,271.62 8.32,271.43 5.57,271.43 5.43,271.62 
				5.43,273.85 6.08,273.85 			"/>
		</g>
		<g>
			<polygon class="st0" points="19.65,269.48 18.73,270.78 20.56,270.78 			"/>
		</g>
		<g>
			<polygon class="st0" points="22.73,273.85 21.81,272.54 21.81,273.85 			"/>
		</g>
		<g>
			<polygon class="st0" points="16.56,273.85 17.48,273.85 17.48,272.54 			"/>
		</g>
		<g>
			<rect x="18.78" y="272.08" class="st0" width="1.72" height="1.77"/>
		</g>
		<g>
			<polygon class="st0" points="17.48,272.54 17.48,273.85 18.13,273.85 18.13,271.62 			"/>
		</g>
		<g>
			<polygon class="st0" points="21.81,273.85 21.81,272.54 21.16,271.62 21.16,273.85 			"/>
		</g>
		<g>
			<polygon class="st0" points="20.56,270.78 18.73,270.78 18.27,271.43 21.02,271.43 			"/>
		</g>
		<g>
			<polygon class="st0" points="18.78,272.08 20.51,272.08 20.51,273.85 21.16,273.85 21.16,271.62 21.02,271.43 18.27,271.43 
				18.13,271.62 18.13,273.85 18.78,273.85 			"/>
		</g>
		<g>
			<polygon class="st0" points="35.44,273.85 34.52,272.54 34.52,273.85 			"/>
		</g>
		<g>
			<polygon class="st0" points="29.26,273.85 30.19,273.85 30.19,272.54 			"/>
		</g>
		<g>
			<polygon class="st0" points="32.35,269.48 31.43,270.78 33.26,270.78 			"/>
		</g>
		<g>
			<rect x="31.49" y="272.08" class="st0" width="1.72" height="1.77"/>
		</g>
		<g>
			<polygon class="st0" points="30.19,272.54 30.19,273.85 30.84,273.85 30.84,271.62 			"/>
		</g>
		<g>
			<polygon class="st0" points="33.26,270.78 31.43,270.78 30.97,271.43 33.72,271.43 			"/>
		</g>
		<g>
			<polygon class="st0" points="34.52,273.85 34.52,272.54 33.86,271.62 33.86,273.85 			"/>
		</g>
		<g>
			<polygon class="st0" points="31.49,272.08 33.21,272.08 33.21,273.85 33.86,273.85 33.86,271.62 33.72,271.43 30.97,271.43 
				30.84,271.62 30.84,273.85 31.49,273.85 			"/>
		</g>
		<g>
			<polygon class="st0" points="41.97,273.85 42.89,273.85 42.89,272.54 			"/>
		</g>
		<g>
			<polygon class="st0" points="45.05,269.48 44.14,270.78 45.97,270.78 			"/>
		</g>
		<g>
			<polygon class="st0" points="48.14,273.85 47.22,272.54 47.22,273.85 			"/>
		</g>
		<g>
			<rect x="44.19" y="272.08" class="st0" width="1.72" height="1.77"/>
		</g>
		<g>
			<polygon class="st0" points="42.89,272.54 42.89,273.85 43.54,273.85 43.54,271.62 			"/>
		</g>
		<g>
			<polygon class="st0" points="47.22,273.85 47.22,272.54 46.57,271.62 46.57,273.85 			"/>
		</g>
		<g>
			<polygon class="st0" points="45.97,270.78 44.14,270.78 43.68,271.43 46.43,271.43 			"/>
		</g>
		<g>
			<polygon class="st0" points="44.19,272.08 45.92,272.08 45.92,273.85 46.57,273.85 46.57,271.62 46.43,271.43 43.68,271.43 
				43.54,271.62 43.54,273.85 44.19,273.85 			"/>
		</g>
	</g>
</g>
<g>
	<g>
		<path class="st0" d="M45.99,248.39c0,3.42-10.5,5.81-19.91,5.81s-19.91-2.38-19.91-5.81c0-1.6,2.32-2.97,5.74-3.98
			c-0.17-0.27-0.32-0.55-0.47-0.83c-3.82,1.2-6.13,2.88-6.13,4.81c0,3.8,8.93,6.67,20.77,6.67s20.77-2.87,20.77-6.67
			c0-2.02-2.54-3.77-6.68-4.97c-0.13,0.28-0.28,0.56-0.43,0.83C43.44,245.27,45.99,246.7,45.99,248.39z"/>
		<path class="st0" d="M0.76,248.44c0,2.89,2.74,5.54,7.73,7.48l0.3-0.81c-4.57-1.79-7.17-4.2-7.17-6.68c0-2.49,2.63-4.92,7.25-6.71
			l-0.29-0.81C3.53,242.87,0.76,245.53,0.76,248.44z"/>
		<path class="st0" d="M42.94,240.54l-0.28,0.87c4.9,1.87,7.58,4.21,7.58,6.61c0,2.38-2.56,5.62-7.47,7.41l0.32,0.82
			c5.05-1.98,8.15-4.96,8.15-7.87C51.24,245.51,48.07,242.54,42.94,240.54z"/>
		<path class="st0" d="M25.96,250.42c4.74,0,9.08-2.03,11.68-5.37c-0.85-0.19-1.77-0.37-2.77-0.52c-2.39,2.09-5.93,3.23-9.26,3.1
			c-3.65-0.14-6.28-1.38-8.11-3.14c-1.26,0.19-2.4,0.42-3.43,0.66C16.86,248.43,21.26,250.42,25.96,250.42z"/>
		<path class="st0" d="M16.38,230.19c0,0,1.37,5.33,8.39,7.87c5.65,2.04,10.46,0.51,12.96-0.23c0.11,1.3-0.11,2.49-0.56,3.57
			c0.77,0.15,1.51,0.3,2.23,0.48c1.12-3.07,0.84-6.46-0.88-9.76c-4.79-9.19-10.87-17.93-12.61-20.37
			c-2.1,2.49-9.82,11.93-13.57,20.34c-1.52,3.4-1.57,6.87-0.22,9.97c0.99-0.27,2.05-0.5,3.15-0.71
			C13.42,237.29,14.13,232.4,16.38,230.19z"/>
		<path class="st0" d="M35.94,243.42c0.87,0.15,1.7,0.32,2.5,0.51c0-0.01,0.01-0.01,0.01-0.02c0.16-0.27,0.29-0.55,0.43-0.83
			c-0.74-0.18-1.52-0.35-2.33-0.49C36.37,242.87,36.17,243.15,35.94,243.42z"/>
		<path class="st0" d="M13.23,244.04c1.02-0.26,2.12-0.48,3.27-0.67c-0.21-0.28-0.41-0.56-0.59-0.85c-1.14,0.2-2.21,0.42-3.2,0.68
			c0.12,0.2,0.21,0.41,0.34,0.6C13.11,243.89,13.18,243.96,13.23,244.04z"/>
		<path class="st0" d="M17.51,244.49c-0.19-0.19-0.38-0.37-0.56-0.57c-1.2,0.19-2.3,0.41-3.31,0.66c0.14,0.19,0.28,0.39,0.43,0.57
			C15.1,244.91,16.25,244.68,17.51,244.49z"/>
		<path class="st0" d="M15.28,241.34c-1.1,0.2-2.15,0.44-3.15,0.71c0.09,0.2,0.17,0.4,0.27,0.6c1-0.27,2.06-0.5,3.18-0.7
			C15.47,241.74,15.37,241.54,15.28,241.34z"/>
		<path class="st0" d="M37.64,245.05c0.14-0.19,0.28-0.38,0.41-0.57c-0.81-0.19-1.67-0.36-2.59-0.52c-0.19,0.19-0.38,0.39-0.59,0.57
			C35.87,244.68,36.79,244.86,37.64,245.05z"/>
		<path class="st0" d="M36.91,242c0.78,0.15,1.55,0.3,2.28,0.48c0.09-0.2,0.15-0.41,0.22-0.61c-0.71-0.18-1.46-0.34-2.23-0.48
			C37.09,241.6,37.01,241.81,36.91,242z"/>
		<path class="st0" d="M36.56,242.58c0.82,0.15,1.6,0.31,2.33,0.49c0.1-0.2,0.21-0.39,0.3-0.59c-0.73-0.18-1.49-0.34-2.28-0.48
			C36.8,242.2,36.68,242.39,36.56,242.58z"/>
		<path class="st0" d="M35.46,243.96c0.92,0.15,1.78,0.33,2.59,0.52c0.13-0.19,0.27-0.36,0.39-0.55c-0.8-0.19-1.63-0.35-2.5-0.51
			C35.79,243.6,35.63,243.78,35.46,243.96z"/>
		<path class="st0" d="M16.95,243.92c-0.16-0.18-0.3-0.36-0.45-0.55c-1.15,0.19-2.25,0.42-3.27,0.67c0.13,0.19,0.27,0.36,0.41,0.54
			C14.65,244.33,15.75,244.11,16.95,243.92z"/>
		<path class="st0" d="M15.58,241.94c-1.12,0.2-2.18,0.43-3.18,0.7c0.1,0.19,0.21,0.37,0.32,0.56c0.99-0.26,2.06-0.49,3.2-0.68
			C15.8,242.33,15.68,242.14,15.58,241.94z"/>
	</g>
</g>
<g>
	<g>
		<path class="st0" d="M17.15,170.01c-1.02,2.29-0.88,4.63,0.39,6.6c1.5,2.31,4.3,3.74,7.32,3.74c2.99,0,5.7-1.41,7.08-3.68
			c1.21-1.99,1.22-4.35,0.03-6.63c-2.63-5.05-5.93-9.86-7.15-11.6C23.35,160.22,19.21,165.39,17.15,170.01z M31.75,173.26
			c0.31,3.62-3.58,5.87-7.09,5.73c-7.24-0.27-7.79-7.85-5.4-10.2c0,0,0.8,3.12,4.91,4.6C27.47,174.59,30.29,173.7,31.75,173.26z"/>
		<path class="st0" d="M31.83,188.65c-1,2.3-0.85,4.64,0.44,6.6c1.52,2.3,4.29,3.7,7.35,3.69c2.99-0.02,5.69-1.45,7.05-3.73
			c1.19-2,1.19-4.36-0.02-6.63c-2.67-5.03-6-9.82-7.24-11.54C37.95,178.81,33.85,184.01,31.83,188.65z M46.45,191.78
			c0.34,3.62-3.54,5.89-7.04,5.79c-7.24-0.22-7.86-7.79-5.48-10.16c0,0,0.83,3.11,4.94,4.56C42.18,193.15,44.99,192.23,46.45,191.78
			z"/>
		<path class="st0" d="M12.83,205.55c2.99,0,5.7-1.41,7.07-3.68c1.21-1.99,1.22-4.35,0.03-6.63v0c-2.63-5.05-5.93-9.86-7.15-11.59
			c-1.47,1.77-5.61,6.94-7.67,11.56c-1.02,2.29-0.88,4.64,0.4,6.6C7.01,204.11,9.82,205.55,12.83,205.55z M7.23,193.99
			c0,0,0.8,3.12,4.91,4.6c3.3,1.19,6.12,0.3,7.58-0.14c0.31,3.62-3.58,5.87-7.09,5.73C5.39,203.91,4.84,196.34,7.23,193.99z"/>
	</g>
</g>
<g>
	<g>
		<g>
			<g>
				<path class="st0" d="M26,100.29c12.29,0,22.29-10,22.29-22.29c0-12.29-10-22.29-22.29-22.29S3.71,65.71,3.71,78
					C3.71,90.29,13.71,100.29,26,100.29z M26,58.69c10.65,0,19.31,8.66,19.31,19.31S36.65,97.31,26,97.31S6.69,88.65,6.69,78
					S15.35,58.69,26,58.69z"/>
			</g>
		</g>
		<g>
			<g>
				<path class="st0" d="M26,81.87c2.13,0,3.87-1.74,3.87-3.87c0-2.13-1.74-3.87-3.87-3.87s-3.87,1.74-3.87,3.87
					C22.13,80.13,23.87,81.87,26,81.87z"/>
			</g>
		</g>
		
			<rect x="29.28" y="74.31" transform="matrix(0.6004 -0.7997 0.7997 0.6004 -52.9941 57.1203)" class="st0" width="2.77" height="14.55"/>
		
			<rect x="21.82" y="71.25" transform="matrix(0.6004 -0.7997 0.7997 0.6004 -46.0875 53.0289)" class="st0" width="16.39" height="2.77"/>
	</g>
</g>
<g>
	<g>
		<polygon class="st0" points="32.07,36.57 23.46,31.86 32.07,27.15 36.78,18.54 41.48,27.15 50.09,31.86 41.48,36.57 36.78,45.18 
					"/>
		<polygon class="st0" points="20.74,13.49 14.8,10.24 20.74,6.99 23.99,1.04 27.24,6.99 33.18,10.24 27.24,13.49 23.99,19.43 		"/>
		<polygon class="st0" points="16.17,47.22 12.44,45.18 16.17,43.14 18.22,39.41 20.26,43.14 23.99,45.18 20.26,47.22 18.21,50.96 
					"/>
		<polygon class="st0" points="6.83,28.75 1.91,26.06 6.83,23.36 9.53,18.43 12.23,23.36 17.16,26.06 12.23,28.75 9.53,33.68 		"/>
	</g>
</g>
<g>
	<g>
		<path class="st0" d="M26,152.29c12.29,0,22.29-10,22.29-22.29c0-12.29-10-22.29-22.29-22.29S3.71,117.71,3.71,130
			C3.71,142.29,13.71,152.29,26,152.29z M26,110.69c10.65,0,19.31,8.66,19.31,19.31c0,10.65-8.66,19.31-19.31,19.31
			S6.69,140.65,6.69,130C6.69,119.35,15.35,110.69,26,110.69z"/>
		<path class="st0" d="M16.57,126.8c2.31,0,3.74-0.94,5.12-1.85c1.28-0.85,2.48-1.64,4.43-1.64c1.9,0,3.12,0.72,4.4,1.49
			c1.38,0.82,2.81,1.67,5.03,1.67c2.21,0,3.64-0.85,5.01-1.66c0.75-0.45,1.48-0.86,2.32-1.15c-0.22-0.58-0.46-1.14-0.73-1.68
			c-0.93,0.34-1.74,0.79-2.51,1.25c-1.27,0.76-2.37,1.41-4.09,1.41c-1.72,0-2.82-0.66-4.09-1.41c-1.44-0.86-2.93-1.74-5.34-1.74
			c-2.5,0-3.99,0.98-5.43,1.93c-1.27,0.84-2.36,1.56-4.12,1.56s-2.86-0.72-4.12-1.56c-0.8-0.53-1.63-1.04-2.61-1.41
			c-0.27,0.55-0.51,1.11-0.73,1.68c0.86,0.31,1.59,0.77,2.33,1.26C12.83,125.86,14.27,126.8,16.57,126.8z"/>
		<path class="st0" d="M16.57,133.64c2.31,0,3.74-0.94,5.13-1.86c1.29-0.85,2.49-1.64,4.42-1.64c1.9,0,3.11,0.72,4.39,1.48
			c1.39,0.83,2.82,1.68,5.04,1.68c2.23,0,3.65-0.85,5.03-1.67c1.05-0.63,2.07-1.21,3.45-1.4c0-0.09,0.01-0.17,0.01-0.26
			c0-0.53-0.03-1.05-0.08-1.57c-1.83,0.21-3.1,0.94-4.32,1.66c-1.28,0.76-2.38,1.41-4.09,1.41c-1.72,0-2.82-0.66-4.09-1.41
			c-1.44-0.86-2.92-1.74-5.34-1.74c-2.5,0-3.99,0.98-5.43,1.94c-1.27,0.84-2.37,1.56-4.12,1.56c-1.76,0-2.85-0.72-4.12-1.55
			c-1.23-0.81-2.52-1.63-4.42-1.85c-0.04,0.52-0.08,1.04-0.08,1.57c0,0.09,0.01,0.18,0.01,0.26c1.4,0.21,2.42,0.85,3.46,1.54
			C12.83,132.69,14.26,133.64,16.57,133.64z"/>
		<path class="st0" d="M16.57,140.47c2.31,0,3.74-0.94,5.12-1.86c1.28-0.84,2.48-1.64,4.43-1.64c1.91,0,3.12,0.72,4.4,1.49
			c1.31,0.78,2.8,1.67,5.03,1.67c2.22,0,3.65-0.85,5.03-1.67c0.59-0.35,1.16-0.69,1.79-0.95c0.33-0.7,0.62-1.42,0.86-2.17
			c-1.44,0.3-2.53,0.92-3.58,1.55c-1.28,0.76-2.38,1.41-4.09,1.41c-1.71,0-2.81-0.65-4.08-1.41c-1.38-0.83-2.93-1.75-5.35-1.75
			c-2.5,0-3.99,0.99-5.43,1.94c-1.27,0.84-2.36,1.56-4.12,1.56s-2.86-0.72-4.12-1.56c-1.06-0.7-2.18-1.4-3.67-1.73
			c0.24,0.76,0.54,1.49,0.88,2.21c0.63,0.29,1.2,0.66,1.78,1.05C12.83,139.53,14.27,140.47,16.57,140.47z"/>
		<path class="st0" d="M31.46,143.72c-1.44-0.86-2.93-1.75-5.34-1.75c-2.49,0-3.98,0.98-5.42,1.93c-1.21,0.8-2.28,1.48-3.91,1.54
			c0.83,0.5,1.71,0.93,2.62,1.29c0.85-0.35,1.58-0.83,2.29-1.3c1.28-0.84,2.48-1.64,4.43-1.64c1.91,0,3.12,0.72,4.4,1.49
			c0.79,0.47,1.59,0.94,2.55,1.27c0.94-0.4,1.83-0.89,2.68-1.44c-0.07,0-0.13,0.01-0.2,0.01C33.83,145.14,32.74,144.48,31.46,143.72
			z"/>
	</g>
</g>
</svg>
